<svg width="117" height="100" viewBox="0 0 117 100" fill="none" xmlns="http://www.w3.org/2000/svg">
<path d="M24.0693 36.3828C40.4444 45.7336 37.6556 73.0284 19.8935 73.0284C12.2328 73.0284 5.60295 67.2943 2.65085 59.9635C-4.16642 43.0324 10.0103 28.3517 24.0693 36.3828Z" fill="#FAC663"/>
<path d="M40.8873 39.7626C21.2401 39.7626 15.3573 6.54318 34.0232 1.08175C42.5274 -1.4057 52.1977 4.56281 55.3038 15.4733C58.7887 27.7023 51.9326 39.7626 40.8873 39.7626Z" fill="#FAC663"/>
<path d="M45.9404 98.8941C48.6689 98.143 53.5114 97.6592 58.5802 97.5894C63.9382 97.5112 69.5479 97.8936 73.1775 98.8941C82.9803 101.613 96.3191 95.0347 93.3924 81.3722C90.6853 68.7417 80.9587 69.4612 78.6586 57.4913C76.3411 45.3939 67.3348 39.5556 58.5802 40.012C50.4777 40.4355 42.592 46.2532 40.4432 57.494C38.1564 69.4722 28.4499 68.7458 25.7469 81.3722C22.8095 95.0457 36.1763 101.588 45.9404 98.8941Z" fill="#FAC663"/>
<path d="M75.466 39.7638C69.9085 39.7638 65.1357 36.55 62.4835 31.6312C54.5992 17.0053 67.5482 -3.24244 82.3314 1.09381C101.029 6.57032 95.1024 39.7638 75.466 39.7638Z" fill="#FAC663"/>
<path d="M84.3465 62.1521C78.038 46.7834 92.9913 28.0103 107.273 33.9171C124.475 41.0314 116.888 71.7155 97.9731 71.7155C91.9028 71.7155 86.7443 67.9946 84.3465 62.1521Z" fill="#FAC663"/>
</svg>
